<svg xmlns="http://www.w3.org/2000/svg" viewBox="-19.2 -19.53 238.4 194.2" width="238.4" height="194.2"><path fill="#7C5A1C" fill-rule="evenodd" d="M16 130L0 36.67L60 76.67L100 10L140 76.67L200 36.67L184 130ZM16 141.67H184V166.67H16ZM40 73.33H46V85H53V116.67H46V123.33H40V116.67H33V85H40ZM97 40H103V55H110V110H103V123.33H97V110H90V55H97ZM154 73.33H160V85H167V116.67H160V123.33H154V116.67H147V85H154Z"/><circle cx="0" cy="28.33" r="11.2" fill="#7C5A1C"/><circle cx="100" cy="1.67" r="13.2" fill="#7C5A1C"/><circle cx="200" cy="28.33" r="11.2" fill="#7C5A1C"/></svg>
