<svg xmlns="http://www.w3.org/2000/svg" viewBox="2 2 236 236" width="236" height="236"><circle cx="120" cy="120" r="118" fill="#0E0D0B"/><path fill="#D8AD4E" fill-rule="evenodd" d="M2 120a118 118 0 1 0 236 0a118 118 0 1 0 -236 0zM9 120a111 111 0 1 0 222 0a111 111 0 1 0 -222 0z"/><g fill="#D8AD4E" transform="translate(120 120)"><rect x="-1.1" y="-106" width="2.2" height="6" transform="rotate(0)"/><rect x="-1.1" y="-106" width="2.2" height="6" transform="rotate(4)"/><rect x="-1.1" y="-106" width="2.2" height="6" transform="rotate(8)"/><rect x="-1.1" y="-106" width="2.2" height="6" transform="rotate(12)"/><rect x="-1.1" y="-106" width="2.2" height="6" transform="rotate(16)"/><rect x="-1.1" y="-106" width="2.2" height="6" transform="rotate(20)"/><rect x="-1.1" y="-106" width="2.2" height="6" transform="rotate(24)"/><rect x="-1.1" y="-106" width="2.2" height="6" transform="rotate(28)"/><rect x="-1.1" y="-106" width="2.2" height="6" transform="rotate(32)"/><rect x="-1.1" y="-106" width="2.2" height="6" transform="rotate(36)"/><rect x="-1.1" y="-106" width="2.2" height="6" transform="rotate(40)"/><rect x="-1.1" y="-106" width="2.2" height="6" transform="rotate(44)"/><rect x="-1.1" y="-106" width="2.2" height="6" transform="rotate(48)"/><rect x="-1.1" y="-106" width="2.2" height="6" transform="rotate(52)"/><rect x="-1.1" y="-106" width="2.2" height="6" transform="rotate(56)"/><rect x="-1.1" y="-106" width="2.2" height="6" transform="rotate(60)"/><rect x="-1.1" y="-106" width="2.2" height="6" transform="rotate(64)"/><rect x="-1.1" y="-106" width="2.2" height="6" transform="rotate(68)"/><rect x="-1.1" y="-106" width="2.2" height="6" transform="rotate(72)"/><rect x="-1.1" y="-106" width="2.2" height="6" transform="rotate(76)"/><rect x="-1.1" y="-106" width="2.2" height="6" transform="rotate(80)"/><rect x="-1.1" y="-106" width="2.2" height="6" transform="rotate(84)"/><rect x="-1.1" y="-106" width="2.2" height="6" transform="rotate(88)"/><rect x="-1.1" y="-106" width="2.2" height="6" transform="rotate(92)"/><rect x="-1.1" y="-106" width="2.2" height="6" transform="rotate(96)"/><rect x="-1.1" y="-106" width="2.2" height="6" transform="rotate(100)"/><rect x="-1.1" y="-106" width="2.2" height="6" transform="rotate(104)"/><rect x="-1.1" y="-106" width="2.2" height="6" transform="rotate(108)"/><rect x="-1.1" y="-106" width="2.2" height="6" transform="rotate(112)"/><rect x="-1.1" y="-106" width="2.2" height="6" transform="rotate(116)"/><rect x="-1.1" y="-106" width="2.2" height="6" transform="rotate(120)"/><rect x="-1.1" y="-106" width="2.2" height="6" transform="rotate(124)"/><rect x="-1.1" y="-106" width="2.2" height="6" transform="rotate(128)"/><rect x="-1.1" y="-106" width="2.2" height="6" transform="rotate(132)"/><rect x="-1.1" y="-106" width="2.2" height="6" transform="rotate(136)"/><rect x="-1.1" y="-106" width="2.2" height="6" transform="rotate(140)"/><rect x="-1.1" y="-106" width="2.2" height="6" transform="rotate(144)"/><rect x="-1.1" y="-106" width="2.2" height="6" transform="rotate(148)"/><rect x="-1.1" y="-106" width="2.2" height="6" transform="rotate(152)"/><rect x="-1.1" y="-106" width="2.2" height="6" transform="rotate(156)"/><rect x="-1.1" y="-106" width="2.2" height="6" transform="rotate(160)"/><rect x="-1.1" y="-106" width="2.2" height="6" transform="rotate(164)"/><rect x="-1.1" y="-106" width="2.2" height="6" transform="rotate(168)"/><rect x="-1.1" y="-106" width="2.2" height="6" transform="rotate(172)"/><rect x="-1.1" y="-106" width="2.2" height="6" transform="rotate(176)"/><rect x="-1.1" y="-106" width="2.2" height="6" transform="rotate(180)"/><rect x="-1.1" y="-106" width="2.2" height="6" transform="rotate(184)"/><rect x="-1.1" y="-106" width="2.2" height="6" transform="rotate(188)"/><rect x="-1.1" y="-106" width="2.2" height="6" transform="rotate(192)"/><rect x="-1.1" y="-106" width="2.2" height="6" transform="rotate(196)"/><rect x="-1.1" y="-106" width="2.2" height="6" transform="rotate(200)"/><rect x="-1.1" y="-106" width="2.2" height="6" transform="rotate(204)"/><rect x="-1.1" y="-106" width="2.2" height="6" transform="rotate(208)"/><rect x="-1.1" y="-106" width="2.2" height="6" transform="rotate(212)"/><rect x="-1.1" y="-106" width="2.2" height="6" transform="rotate(216)"/><rect x="-1.1" y="-106" width="2.2" height="6" transform="rotate(220)"/><rect x="-1.1" y="-106" width="2.2" height="6" transform="rotate(224)"/><rect x="-1.1" y="-106" width="2.2" height="6" transform="rotate(228)"/><rect x="-1.1" y="-106" width="2.2" height="6" transform="rotate(232)"/><rect x="-1.1" y="-106" width="2.2" height="6" transform="rotate(236)"/><rect x="-1.1" y="-106" width="2.2" height="6" transform="rotate(240)"/><rect x="-1.1" y="-106" width="2.2" height="6" transform="rotate(244)"/><rect x="-1.1" y="-106" width="2.2" height="6" transform="rotate(248)"/><rect x="-1.1" y="-106" width="2.2" height="6" transform="rotate(252)"/><rect x="-1.1" y="-106" width="2.2" height="6" transform="rotate(256)"/><rect x="-1.1" y="-106" width="2.2" height="6" transform="rotate(260)"/><rect x="-1.1" y="-106" width="2.2" height="6" transform="rotate(264)"/><rect x="-1.1" y="-106" width="2.2" height="6" transform="rotate(268)"/><rect x="-1.1" y="-106" width="2.2" height="6" transform="rotate(272)"/><rect x="-1.1" y="-106" width="2.2" height="6" transform="rotate(276)"/><rect x="-1.1" y="-106" width="2.2" height="6" transform="rotate(280)"/><rect x="-1.1" y="-106" width="2.2" height="6" transform="rotate(284)"/><rect x="-1.1" y="-106" width="2.2" height="6" transform="rotate(288)"/><rect x="-1.1" y="-106" width="2.2" height="6" transform="rotate(292)"/><rect x="-1.1" y="-106" width="2.2" height="6" transform="rotate(296)"/><rect x="-1.1" y="-106" width="2.2" height="6" transform="rotate(300)"/><rect x="-1.1" y="-106" width="2.2" height="6" transform="rotate(304)"/><rect x="-1.1" y="-106" width="2.2" height="6" transform="rotate(308)"/><rect x="-1.1" y="-106" width="2.2" height="6" transform="rotate(312)"/><rect x="-1.1" y="-106" width="2.2" height="6" transform="rotate(316)"/><rect x="-1.1" y="-106" width="2.2" height="6" transform="rotate(320)"/><rect x="-1.1" y="-106" width="2.2" height="6" transform="rotate(324)"/><rect x="-1.1" y="-106" width="2.2" height="6" transform="rotate(328)"/><rect x="-1.1" y="-106" width="2.2" height="6" transform="rotate(332)"/><rect x="-1.1" y="-106" width="2.2" height="6" transform="rotate(336)"/><rect x="-1.1" y="-106" width="2.2" height="6" transform="rotate(340)"/><rect x="-1.1" y="-106" width="2.2" height="6" transform="rotate(344)"/><rect x="-1.1" y="-106" width="2.2" height="6" transform="rotate(348)"/><rect x="-1.1" y="-106" width="2.2" height="6" transform="rotate(352)"/><rect x="-1.1" y="-106" width="2.2" height="6" transform="rotate(356)"/></g><circle cx="120" cy="120" r="88" fill="#D8AD4E"/><circle cx="120" cy="120" r="81" fill="none" stroke="#0E0D0B" stroke-width="1.6"/><g transform="translate(56 97.62) scale(0.4476)"><path fill="#0E0D0B" d="M0 0H88V24H56V100H32V24H0Z"/><path fill="#0E0D0B" d="M188.06 28A51.5 51.5 0 1 0 188.06 72L158 72A27.5 27.5 0 1 1 158 28Z"/><path fill="#0E0D0B" fill-rule="evenodd" d="M202 0H251A35 35 0 0 1 286 35A35 35 0 0 1 251 70H226V100H202ZM226 24V46H251A11 11 0 0 0 262 35A11 11 0 0 0 251 24Z"/></g></svg>
